<svg width="577" height="78" viewBox="0 0 577 78" fill="none" xmlns="http://www.w3.org/2000/svg">
<g filter="url(#filter0_d)">
<rect x="10" y="6" width="557" height="58" rx="5" fill="white"/>
</g>
<rect x="10" y="57" width="457" height="7" fill="#4169E1"/>
<path d="M538.141 25.7363C538.141 26.1504 538.037 26.5176 537.83 26.8379C537.623 27.1582 537.338 27.4141 536.975 27.6055C537.389 27.8047 537.717 28.0801 537.959 28.4316C538.201 28.7793 538.322 29.1895 538.322 29.6621C538.322 30.4199 538.064 31.0195 537.549 31.4609C537.033 31.8984 536.332 32.1172 535.445 32.1172C534.559 32.1172 533.855 31.8965 533.336 31.4551C532.816 31.0137 532.557 30.416 532.557 29.6621C532.557 29.1895 532.678 28.7773 532.92 28.4258C533.162 28.0742 533.488 27.8008 533.898 27.6055C533.535 27.4141 533.25 27.1582 533.043 26.8379C532.84 26.5176 532.738 26.1504 532.738 25.7363C532.738 25.0098 532.98 24.4316 533.465 24.002C533.949 23.5684 534.607 23.3516 535.439 23.3516C536.268 23.3516 536.924 23.5664 537.408 23.9961C537.896 24.4219 538.141 25.002 538.141 25.7363ZM536.623 29.5391C536.623 29.168 536.516 28.8711 536.301 28.6484C536.086 28.4258 535.797 28.3145 535.434 28.3145C535.074 28.3145 534.787 28.4258 534.572 28.6484C534.357 28.8672 534.25 29.1641 534.25 29.5391C534.25 29.9023 534.355 30.1953 534.566 30.418C534.777 30.6406 535.07 30.752 535.445 30.752C535.812 30.752 536.1 30.6445 536.307 30.4297C536.518 30.2148 536.623 29.918 536.623 29.5391ZM536.447 25.8184C536.447 25.4863 536.359 25.2207 536.184 25.0215C536.008 24.8184 535.76 24.7168 535.439 24.7168C535.123 24.7168 534.877 24.8145 534.701 25.0098C534.525 25.2051 534.438 25.4746 534.438 25.8184C534.438 26.1582 534.525 26.4316 534.701 26.6387C534.877 26.8457 535.125 26.9492 535.445 26.9492C535.766 26.9492 536.012 26.8457 536.184 26.6387C536.359 26.4316 536.447 26.1582 536.447 25.8184ZM539.723 27.8047L540.215 23.4688H544.996V24.8809H541.604L541.393 26.7148C541.795 26.5 542.223 26.3926 542.676 26.3926C543.488 26.3926 544.125 26.6445 544.586 27.1484C545.047 27.6523 545.277 28.3574 545.277 29.2637C545.277 29.8145 545.16 30.3086 544.926 30.7461C544.695 31.1797 544.363 31.5176 543.93 31.7598C543.496 31.998 542.984 32.1172 542.395 32.1172C541.879 32.1172 541.4 32.0137 540.959 31.8066C540.518 31.5957 540.168 31.3008 539.91 30.9219C539.656 30.543 539.521 30.1113 539.506 29.627H541.182C541.217 29.9824 541.34 30.2598 541.551 30.459C541.766 30.6543 542.045 30.752 542.389 30.752C542.771 30.752 543.066 30.6152 543.273 30.3418C543.48 30.0645 543.584 29.6738 543.584 29.1699C543.584 28.6855 543.465 28.3145 543.227 28.0566C542.988 27.7988 542.65 27.6699 542.213 27.6699C541.811 27.6699 541.484 27.7754 541.234 27.9863L541.07 28.1387L539.723 27.8047ZM546.338 25.1094C546.338 24.5859 546.508 24.1621 546.848 23.8379C547.188 23.5098 547.633 23.3457 548.184 23.3457C548.742 23.3457 549.191 23.5078 549.531 23.832C549.871 24.1523 550.041 24.5879 550.041 25.1387V25.5605C550.041 26.0879 549.871 26.5117 549.531 26.832C549.191 27.1523 548.746 27.3125 548.195 27.3125C547.641 27.3125 547.191 27.1523 546.848 26.832C546.508 26.5078 546.338 26.0723 546.338 25.5254V25.1094ZM547.463 25.5605C547.463 25.7949 547.529 25.9844 547.662 26.1289C547.799 26.2695 547.977 26.3398 548.195 26.3398C548.414 26.3398 548.588 26.2676 548.717 26.123C548.846 25.9785 548.91 25.7852 548.91 25.543V25.1094C548.91 24.875 548.846 24.6855 548.717 24.541C548.588 24.3965 548.41 24.3242 548.184 24.3242C547.969 24.3242 547.795 24.3965 547.662 24.541C547.529 24.6816 547.463 24.8789 547.463 25.1328V25.5605ZM550.416 29.9082C550.416 29.3809 550.588 28.957 550.932 28.6367C551.275 28.3125 551.721 28.1504 552.268 28.1504C552.822 28.1504 553.27 28.3105 553.609 28.6309C553.953 28.9473 554.125 29.3848 554.125 29.9434V30.3652C554.125 30.8887 553.957 31.3125 553.621 31.6367C553.285 31.957 552.838 32.1172 552.279 32.1172C551.717 32.1172 551.266 31.9551 550.926 31.6309C550.586 31.3066 550.416 30.877 550.416 30.3418V29.9082ZM551.541 30.3652C551.541 30.5801 551.611 30.7637 551.752 30.916C551.893 31.0684 552.068 31.1445 552.279 31.1445C552.756 31.1445 552.994 30.8809 552.994 30.3535V29.9082C552.994 29.6738 552.928 29.4863 552.795 29.3457C552.662 29.2012 552.486 29.1289 552.268 29.1289C552.049 29.1289 551.873 29.2012 551.74 29.3457C551.607 29.4863 551.541 29.6797 551.541 29.9258V30.3652ZM548.529 31.3613L547.703 30.916L551.869 24.248L552.695 24.6934L548.529 31.3613Z" fill="black"/>
<path d="M47.462 28.072C47.462 27.1013 47.672 26.238 48.092 25.482C48.512 24.7167 49.0953 24.124 49.842 23.704C50.598 23.2747 51.452 23.06 52.404 23.06C53.5707 23.06 54.5693 23.368 55.4 23.984C56.2307 24.6 56.786 25.44 57.066 26.504H54.434C54.238 26.0933 53.958 25.7807 53.594 25.566C53.2393 25.3513 52.8333 25.244 52.376 25.244C51.6387 25.244 51.0413 25.5007 50.584 26.014C50.1267 26.5273 49.898 27.2133 49.898 28.072C49.898 28.9307 50.1267 29.6167 50.584 30.13C51.0413 30.6433 51.6387 30.9 52.376 30.9C52.8333 30.9 53.2393 30.7927 53.594 30.578C53.958 30.3633 54.238 30.0507 54.434 29.64H57.066C56.786 30.704 56.2307 31.544 55.4 32.16C54.5693 32.7667 53.5707 33.07 52.404 33.07C51.452 33.07 50.598 32.86 49.842 32.44C49.0953 32.0107 48.512 31.418 48.092 30.662C47.672 29.906 47.462 29.0427 47.462 28.072ZM62.0881 33.098C61.3694 33.098 60.7254 32.9813 60.1561 32.748C59.5867 32.5147 59.1294 32.1693 58.7841 31.712C58.4481 31.2547 58.2707 30.704 58.2521 30.06H60.8001C60.8374 30.424 60.9634 30.704 61.1781 30.9C61.3927 31.0867 61.6727 31.18 62.0181 31.18C62.3727 31.18 62.6527 31.1007 62.8581 30.942C63.0634 30.774 63.1661 30.5453 63.1661 30.256C63.1661 30.0133 63.0821 29.8127 62.9141 29.654C62.7554 29.4953 62.5547 29.3647 62.3121 29.262C62.0787 29.1593 61.7427 29.0427 61.3041 28.912C60.6694 28.716 60.1514 28.52 59.7501 28.324C59.3487 28.128 59.0034 27.8387 58.7141 27.456C58.4247 27.0733 58.2801 26.574 58.2801 25.958C58.2801 25.0433 58.6114 24.3293 59.2741 23.816C59.9367 23.2933 60.8001 23.032 61.8641 23.032C62.9467 23.032 63.8194 23.2933 64.4821 23.816C65.1447 24.3293 65.4994 25.048 65.5461 25.972H62.9561C62.9374 25.6547 62.8207 25.4073 62.6061 25.23C62.3914 25.0433 62.1161 24.95 61.7801 24.95C61.4907 24.95 61.2574 25.0293 61.0801 25.188C60.9027 25.3373 60.8141 25.5567 60.8141 25.846C60.8141 26.1633 60.9634 26.4107 61.2621 26.588C61.5607 26.7653 62.0274 26.9567 62.6621 27.162C63.2967 27.3767 63.8101 27.582 64.2021 27.778C64.6034 27.974 64.9487 28.2587 65.2381 28.632C65.5274 29.0053 65.6721 29.486 65.6721 30.074C65.6721 30.634 65.5274 31.1427 65.2381 31.6C64.9581 32.0573 64.5474 32.4213 64.0061 32.692C63.4647 32.9627 62.8254 33.098 62.0881 33.098ZM70.7013 33.098C69.9827 33.098 69.3387 32.9813 68.7693 32.748C68.2 32.5147 67.7427 32.1693 67.3973 31.712C67.0613 31.2547 66.884 30.704 66.8653 30.06H69.4133C69.4507 30.424 69.5767 30.704 69.7913 30.9C70.006 31.0867 70.286 31.18 70.6313 31.18C70.986 31.18 71.266 31.1007 71.4713 30.942C71.6767 30.774 71.7793 30.5453 71.7793 30.256C71.7793 30.0133 71.6953 29.8127 71.5273 29.654C71.3687 29.4953 71.168 29.3647 70.9253 29.262C70.692 29.1593 70.356 29.0427 69.9173 28.912C69.2827 28.716 68.7647 28.52 68.3633 28.324C67.962 28.128 67.6167 27.8387 67.3273 27.456C67.038 27.0733 66.8933 26.574 66.8933 25.958C66.8933 25.0433 67.2247 24.3293 67.8873 23.816C68.55 23.2933 69.4133 23.032 70.4773 23.032C71.56 23.032 72.4327 23.2933 73.0953 23.816C73.758 24.3293 74.1127 25.048 74.1593 25.972H71.5693C71.5507 25.6547 71.434 25.4073 71.2193 25.23C71.0047 25.0433 70.7293 24.95 70.3933 24.95C70.104 24.95 69.8707 25.0293 69.6933 25.188C69.516 25.3373 69.4273 25.5567 69.4273 25.846C69.4273 26.1633 69.5767 26.4107 69.8753 26.588C70.174 26.7653 70.6407 26.9567 71.2753 27.162C71.91 27.3767 72.4233 27.582 72.8153 27.778C73.2167 27.974 73.562 28.2587 73.8513 28.632C74.1407 29.0053 74.2853 29.486 74.2853 30.074C74.2853 30.634 74.1407 31.1427 73.8513 31.6C73.5713 32.0573 73.1607 32.4213 72.6193 32.692C72.078 32.9627 71.4387 33.098 70.7013 33.098ZM75.6046 25.664C75.642 24.6653 75.9686 23.8953 76.5846 23.354C77.2006 22.8127 78.036 22.542 79.0906 22.542C79.7906 22.542 80.388 22.6633 80.8826 22.906C81.3866 23.1487 81.7646 23.48 82.0166 23.9C82.278 24.32 82.4086 24.7913 82.4086 25.314C82.4086 25.93 82.2546 26.434 81.9466 26.826C81.6386 27.2087 81.2793 27.47 80.8686 27.61V27.666C81.4006 27.8433 81.8206 28.1373 82.1286 28.548C82.4366 28.9587 82.5906 29.486 82.5906 30.13C82.5906 30.7087 82.4553 31.222 82.1846 31.67C81.9233 32.1087 81.536 32.454 81.0226 32.706C80.5186 32.958 79.9166 33.084 79.2166 33.084C78.0966 33.084 77.2006 32.8087 76.5286 32.258C75.866 31.7073 75.516 30.8767 75.4786 29.766H77.8026C77.812 30.1767 77.9286 30.5033 78.1526 30.746C78.3766 30.9793 78.7033 31.096 79.1326 31.096C79.4966 31.096 79.7766 30.9933 79.9726 30.788C80.178 30.5733 80.2806 30.2933 80.2806 29.948C80.2806 29.5 80.136 29.178 79.8466 28.982C79.5666 28.7767 79.114 28.674 78.4886 28.674H78.0406V26.728H78.4886C78.9646 26.728 79.3473 26.6487 79.6366 26.49C79.9353 26.322 80.0846 26.028 80.0846 25.608C80.0846 25.272 79.9913 25.0107 79.8046 24.824C79.618 24.6373 79.3613 24.544 79.0346 24.544C78.68 24.544 78.414 24.6513 78.2366 24.866C78.0686 25.0807 77.9706 25.3467 77.9426 25.664H75.6046Z" fill="black"/>
<path d="M20 16L21.9334 36.889L30.615 39.21L39.2935 36.8904L41.23 16H20ZM37.0962 22.831L36.8521 25.4552L36.1166 33.3234L30.615 34.7769L30.612 34.7783L25.1149 33.3219L24.7297 29.2079H27.4229L27.6231 31.3433L30.612 32.115L30.615 32.1121L33.6069 31.3404L34.0148 27.7849L24.6008 27.8095L24.334 25.3768L34.2408 25.2666L34.4409 22.6627L24.0686 22.6903L23.8942 20.2706H30.615H37.3358L37.0962 22.831Z" fill="#4169E1"/>
<defs>
<filter id="filter0_d" x="0" y="0" width="577" height="78" filterUnits="userSpaceOnUse" color-interpolation-filters="sRGB">
<feFlood flood-opacity="0" result="BackgroundImageFix"/>
<feColorMatrix in="SourceAlpha" type="matrix" values="0 0 0 0 0 0 0 0 0 0 0 0 0 0 0 0 0 0 127 0"/>
<feOffset dy="4"/>
<feGaussianBlur stdDeviation="5"/>
<feColorMatrix type="matrix" values="0 0 0 0 0 0 0 0 0 0 0 0 0 0 0 0 0 0 0.25 0"/>
<feBlend mode="normal" in2="BackgroundImageFix" result="effect1_dropShadow"/>
<feBlend mode="normal" in="SourceGraphic" in2="effect1_dropShadow" result="shape"/>
</filter>
</defs>
</svg>
