<svg width="577" height="78" viewBox="0 0 577 78" fill="none" xmlns="http://www.w3.org/2000/svg">
<g filter="url(#filter0_d)">
<rect x="10" y="6" width="557" height="58" rx="5" fill="white"/>
</g>
<rect x="10" y="57" width="522" height="7" fill="#4169E1"/>
<path d="M536.541 28.5898C536.1 29.0234 535.584 29.2402 534.994 29.2402C534.24 29.2402 533.637 28.9824 533.184 28.4668C532.73 27.9473 532.504 27.248 532.504 26.3691C532.504 25.8105 532.625 25.2988 532.867 24.834C533.113 24.3652 533.455 24.002 533.893 23.7441C534.33 23.4824 534.822 23.3516 535.369 23.3516C535.932 23.3516 536.432 23.4922 536.869 23.7734C537.307 24.0547 537.646 24.459 537.889 24.9863C538.131 25.5137 538.254 26.1172 538.258 26.7969V27.4238C538.258 28.8457 537.904 29.9629 537.197 30.7754C536.49 31.5879 535.488 32.0215 534.191 32.0762L533.775 32.082V30.6699L534.15 30.6641C535.623 30.5977 536.42 29.9062 536.541 28.5898ZM535.41 27.9453C535.684 27.9453 535.918 27.875 536.113 27.7344C536.312 27.5938 536.463 27.4238 536.564 27.2246V26.5273C536.564 25.9531 536.455 25.5078 536.236 25.1914C536.018 24.875 535.725 24.7168 535.357 24.7168C535.018 24.7168 534.738 24.873 534.52 25.1855C534.301 25.4941 534.191 25.8828 534.191 26.3516C534.191 26.8164 534.297 27.1992 534.508 27.5C534.723 27.7969 535.023 27.9453 535.41 27.9453ZM545.031 25.7363C545.031 26.1504 544.928 26.5176 544.721 26.8379C544.514 27.1582 544.229 27.4141 543.865 27.6055C544.279 27.8047 544.607 28.0801 544.85 28.4316C545.092 28.7793 545.213 29.1895 545.213 29.6621C545.213 30.4199 544.955 31.0195 544.439 31.4609C543.924 31.8984 543.223 32.1172 542.336 32.1172C541.449 32.1172 540.746 31.8965 540.227 31.4551C539.707 31.0137 539.447 30.416 539.447 29.6621C539.447 29.1895 539.568 28.7773 539.811 28.4258C540.053 28.0742 540.379 27.8008 540.789 27.6055C540.426 27.4141 540.141 27.1582 539.934 26.8379C539.73 26.5176 539.629 26.1504 539.629 25.7363C539.629 25.0098 539.871 24.4316 540.355 24.002C540.84 23.5684 541.498 23.3516 542.33 23.3516C543.158 23.3516 543.814 23.5664 544.299 23.9961C544.787 24.4219 545.031 25.002 545.031 25.7363ZM543.514 29.5391C543.514 29.168 543.406 28.8711 543.191 28.6484C542.977 28.4258 542.688 28.3145 542.324 28.3145C541.965 28.3145 541.678 28.4258 541.463 28.6484C541.248 28.8672 541.141 29.1641 541.141 29.5391C541.141 29.9023 541.246 30.1953 541.457 30.418C541.668 30.6406 541.961 30.752 542.336 30.752C542.703 30.752 542.99 30.6445 543.197 30.4297C543.408 30.2148 543.514 29.918 543.514 29.5391ZM543.338 25.8184C543.338 25.4863 543.25 25.2207 543.074 25.0215C542.898 24.8184 542.65 24.7168 542.33 24.7168C542.014 24.7168 541.768 24.8145 541.592 25.0098C541.416 25.2051 541.328 25.4746 541.328 25.8184C541.328 26.1582 541.416 26.4316 541.592 26.6387C541.768 26.8457 542.016 26.9492 542.336 26.9492C542.656 26.9492 542.902 26.8457 543.074 26.6387C543.25 26.4316 543.338 26.1582 543.338 25.8184ZM546.338 25.1094C546.338 24.5859 546.508 24.1621 546.848 23.8379C547.188 23.5098 547.633 23.3457 548.184 23.3457C548.742 23.3457 549.191 23.5078 549.531 23.832C549.871 24.1523 550.041 24.5879 550.041 25.1387V25.5605C550.041 26.0879 549.871 26.5117 549.531 26.832C549.191 27.1523 548.746 27.3125 548.195 27.3125C547.641 27.3125 547.191 27.1523 546.848 26.832C546.508 26.5078 546.338 26.0723 546.338 25.5254V25.1094ZM547.463 25.5605C547.463 25.7949 547.529 25.9844 547.662 26.1289C547.799 26.2695 547.977 26.3398 548.195 26.3398C548.414 26.3398 548.588 26.2676 548.717 26.123C548.846 25.9785 548.91 25.7852 548.91 25.543V25.1094C548.91 24.875 548.846 24.6855 548.717 24.541C548.588 24.3965 548.41 24.3242 548.184 24.3242C547.969 24.3242 547.795 24.3965 547.662 24.541C547.529 24.6816 547.463 24.8789 547.463 25.1328V25.5605ZM550.416 29.9082C550.416 29.3809 550.588 28.957 550.932 28.6367C551.275 28.3125 551.721 28.1504 552.268 28.1504C552.822 28.1504 553.27 28.3105 553.609 28.6309C553.953 28.9473 554.125 29.3848 554.125 29.9434V30.3652C554.125 30.8887 553.957 31.3125 553.621 31.6367C553.285 31.957 552.838 32.1172 552.279 32.1172C551.717 32.1172 551.266 31.9551 550.926 31.6309C550.586 31.3066 550.416 30.877 550.416 30.3418V29.9082ZM551.541 30.3652C551.541 30.5801 551.611 30.7637 551.752 30.916C551.893 31.0684 552.068 31.1445 552.279 31.1445C552.756 31.1445 552.994 30.8809 552.994 30.3535V29.9082C552.994 29.6738 552.928 29.4863 552.795 29.3457C552.662 29.2012 552.486 29.1289 552.268 29.1289C552.049 29.1289 551.873 29.2012 551.74 29.3457C551.607 29.4863 551.541 29.6797 551.541 29.9258V30.3652ZM548.529 31.3613L547.703 30.916L551.869 24.248L552.695 24.6934L548.529 31.3613Z" fill="black"/>
<path d="M56.38 23.172V33H53.986V28.954H50.262V33H47.868V23.172H50.262V27.022H53.986V23.172H56.38ZM65.1782 23.172V25.09H62.5742V33H60.1802V25.09H57.5762V23.172H65.1782ZM77.5097 23.172V33H75.1157V27.106L72.9177 33H70.9857L68.7737 27.092V33H66.3797V23.172H69.2077L71.9657 29.976L74.6957 23.172H77.5097ZM81.6253 31.152H84.7613V33H79.2313V23.172H81.6253V31.152ZM92.8612 24.866H88.4932V26.798C88.6798 26.5927 88.9412 26.4247 89.2772 26.294C89.6132 26.1633 89.9772 26.098 90.3692 26.098C91.0692 26.098 91.6478 26.2567 92.1052 26.574C92.5718 26.8913 92.9125 27.302 93.1272 27.806C93.3418 28.31 93.4492 28.856 93.4492 29.444C93.4492 30.536 93.1412 31.404 92.5252 32.048C91.9092 32.6827 91.0412 33 89.9212 33C89.1745 33 88.5258 32.874 87.9752 32.622C87.4245 32.3607 86.9998 32.0013 86.7012 31.544C86.4025 31.0867 86.2392 30.5593 86.2112 29.962H88.5492C88.6052 30.2513 88.7405 30.494 88.9552 30.69C89.1698 30.8767 89.4638 30.97 89.8372 30.97C90.2758 30.97 90.6025 30.83 90.8172 30.55C91.0318 30.27 91.1392 29.8967 91.1392 29.43C91.1392 28.9727 91.0272 28.6227 90.8032 28.38C90.5792 28.1373 90.2525 28.016 89.8232 28.016C89.5058 28.016 89.2445 28.0953 89.0392 28.254C88.8338 28.4033 88.6985 28.604 88.6332 28.856H86.3232V22.766H92.8612V24.866Z" fill="black"/>
<path d="M20.3683 16C20.1469 16 19.9819 16.1739 20.0016 16.3864L21.8681 36.5611C21.8877 36.7735 22.0783 36.9941 22.2917 37.0512L30.2123 39.1704C30.4256 39.2275 30.7747 39.2275 30.9881 39.1706L38.9327 37.0479C39.1461 36.9909 39.3369 36.7703 39.3565 36.5579L41.2261 16.3864C41.2459 16.1739 41.0808 16 40.8594 16H20.3683ZM37.2512 20.627C37.2335 20.8165 37.203 21.1456 37.1834 21.3581L37.1342 21.8874C37.1144 22.0998 37.0862 22.4036 37.0713 22.5624C37.0565 22.7213 37.0424 22.8513 37.0398 22.8513C37.0373 22.8513 36.8541 22.8513 36.6327 22.8513H31.0164C30.795 22.8513 30.612 22.8513 30.6096 22.8513C30.6072 22.8513 30.424 22.8513 30.2026 22.8513H27.2447C27.0233 22.8513 26.8584 23.0251 26.878 23.2376L27.0505 25.0961C27.0702 25.3085 27.2675 25.4824 27.4889 25.4824H30.2027C30.4241 25.4824 30.6072 25.4824 30.6097 25.4824C30.6121 25.4824 30.7951 25.4824 31.0165 25.4824H35.6811C35.9025 25.4824 36.2451 25.4824 36.4424 25.4824C36.6396 25.4824 36.7865 25.6375 36.7686 25.827C36.7506 26.0166 36.72 26.3457 36.7003 26.5581L36.1455 32.5495C36.1257 32.762 36.1007 33.0334 36.0899 33.1528C36.0789 33.272 35.8954 33.4162 35.682 33.4733L31.0018 34.7238C30.7885 34.7807 30.6112 34.8279 30.6079 34.8286C30.6046 34.8293 30.4274 34.7831 30.214 34.7261L25.5288 33.4733C25.3154 33.4163 25.1248 33.1957 25.1051 32.9833L24.8035 29.7214C24.7839 29.5089 24.949 29.335 25.1704 29.335H25.598C25.8194 29.335 26.1817 29.335 26.4031 29.335H27.0407C27.2621 29.335 27.4593 29.5089 27.4791 29.7214L27.5973 30.9983C27.617 31.2108 27.8079 31.4301 28.0217 31.4857L30.2132 32.056C30.4269 32.1116 30.6026 32.1572 30.6035 32.1572C30.6045 32.1572 30.7801 32.1116 30.9939 32.0559L33.1893 31.4842C33.403 31.4286 33.594 31.2092 33.6138 30.9968L33.8519 28.4385C33.8717 28.226 33.7068 28.0521 33.4854 28.0521H31.0165C30.7951 28.0521 30.6121 28.0521 30.6097 28.0521C30.6072 28.0521 30.4241 28.0521 30.2027 28.0521H25.051C24.8296 28.0521 24.6325 27.8782 24.6128 27.6658L24.0286 21.358C24.009 21.1455 23.9785 20.8165 23.9608 20.6269C23.9434 20.4374 24.1101 20.2823 24.3315 20.2823H30.2027C30.4241 20.2823 30.6072 20.2823 30.6097 20.2823C30.6121 20.2823 30.7951 20.2823 31.0165 20.2823H36.8806C37.1019 20.2823 37.2687 20.4374 37.2512 20.627Z" fill="#4169E1"/>
<defs>
<filter id="filter0_d" x="0" y="0" width="577" height="78" filterUnits="userSpaceOnUse" color-interpolation-filters="sRGB">
<feFlood flood-opacity="0" result="BackgroundImageFix"/>
<feColorMatrix in="SourceAlpha" type="matrix" values="0 0 0 0 0 0 0 0 0 0 0 0 0 0 0 0 0 0 127 0"/>
<feOffset dy="4"/>
<feGaussianBlur stdDeviation="5"/>
<feColorMatrix type="matrix" values="0 0 0 0 0 0 0 0 0 0 0 0 0 0 0 0 0 0 0.25 0"/>
<feBlend mode="normal" in2="BackgroundImageFix" result="effect1_dropShadow"/>
<feBlend mode="normal" in="SourceGraphic" in2="effect1_dropShadow" result="shape"/>
</filter>
</defs>
</svg>
