<svg width="577" height="78" viewBox="0 0 577 78" fill="none" xmlns="http://www.w3.org/2000/svg">
<g filter="url(#filter0_d)">
<rect x="10" y="6" width="557" height="58" rx="5" fill="white"/>
</g>
<rect x="10" y="57" width="380" height="7" fill="#4169E1"/>
<path d="M537.174 24.3809V25.7754H537.01C536.244 25.7871 535.627 25.9863 535.158 26.373C534.693 26.7598 534.414 27.2969 534.32 27.9844C534.773 27.5234 535.346 27.293 536.037 27.293C536.779 27.293 537.369 27.5586 537.807 28.0898C538.244 28.6211 538.463 29.3203 538.463 30.1875C538.463 30.7422 538.342 31.2441 538.1 31.6934C537.861 32.1426 537.521 32.4922 537.08 32.7422C536.643 32.9922 536.146 33.1172 535.592 33.1172C534.693 33.1172 533.967 32.8047 533.412 32.1797C532.861 31.5547 532.586 30.7207 532.586 29.6777V29.0684C532.586 28.1426 532.76 27.3262 533.107 26.6191C533.459 25.9082 533.961 25.3594 534.613 24.9727C535.27 24.582 536.029 24.3848 536.893 24.3809H537.174ZM535.521 28.6523C535.248 28.6523 535 28.7246 534.777 28.8691C534.555 29.0098 534.391 29.1973 534.285 29.4316V29.9473C534.285 30.5137 534.396 30.957 534.619 31.2773C534.842 31.5938 535.154 31.752 535.557 31.752C535.92 31.752 536.213 31.6094 536.436 31.3242C536.662 31.0352 536.775 30.6621 536.775 30.2051C536.775 29.7402 536.662 29.3652 536.436 29.0801C536.209 28.7949 535.904 28.6523 535.521 28.6523ZM539.723 28.8047L540.215 24.4688H544.996V25.8809H541.604L541.393 27.7148C541.795 27.5 542.223 27.3926 542.676 27.3926C543.488 27.3926 544.125 27.6445 544.586 28.1484C545.047 28.6523 545.277 29.3574 545.277 30.2637C545.277 30.8145 545.16 31.3086 544.926 31.7461C544.695 32.1797 544.363 32.5176 543.93 32.7598C543.496 32.998 542.984 33.1172 542.395 33.1172C541.879 33.1172 541.4 33.0137 540.959 32.8066C540.518 32.5957 540.168 32.3008 539.91 31.9219C539.656 31.543 539.521 31.1113 539.506 30.627H541.182C541.217 30.9824 541.34 31.2598 541.551 31.459C541.766 31.6543 542.045 31.752 542.389 31.752C542.771 31.752 543.066 31.6152 543.273 31.3418C543.48 31.0645 543.584 30.6738 543.584 30.1699C543.584 29.6855 543.465 29.3145 543.227 29.0566C542.988 28.7988 542.65 28.6699 542.213 28.6699C541.811 28.6699 541.484 28.7754 541.234 28.9863L541.07 29.1387L539.723 28.8047ZM546.338 26.1094C546.338 25.5859 546.508 25.1621 546.848 24.8379C547.188 24.5098 547.633 24.3457 548.184 24.3457C548.742 24.3457 549.191 24.5078 549.531 24.832C549.871 25.1523 550.041 25.5879 550.041 26.1387V26.5605C550.041 27.0879 549.871 27.5117 549.531 27.832C549.191 28.1523 548.746 28.3125 548.195 28.3125C547.641 28.3125 547.191 28.1523 546.848 27.832C546.508 27.5078 546.338 27.0723 546.338 26.5254V26.1094ZM547.463 26.5605C547.463 26.7949 547.529 26.9844 547.662 27.1289C547.799 27.2695 547.977 27.3398 548.195 27.3398C548.414 27.3398 548.588 27.2676 548.717 27.123C548.846 26.9785 548.91 26.7852 548.91 26.543V26.1094C548.91 25.875 548.846 25.6855 548.717 25.541C548.588 25.3965 548.41 25.3242 548.184 25.3242C547.969 25.3242 547.795 25.3965 547.662 25.541C547.529 25.6816 547.463 25.8789 547.463 26.1328V26.5605ZM550.416 30.9082C550.416 30.3809 550.588 29.957 550.932 29.6367C551.275 29.3125 551.721 29.1504 552.268 29.1504C552.822 29.1504 553.27 29.3105 553.609 29.6309C553.953 29.9473 554.125 30.3848 554.125 30.9434V31.3652C554.125 31.8887 553.957 32.3125 553.621 32.6367C553.285 32.957 552.838 33.1172 552.279 33.1172C551.717 33.1172 551.266 32.9551 550.926 32.6309C550.586 32.3066 550.416 31.877 550.416 31.3418V30.9082ZM551.541 31.3652C551.541 31.5801 551.611 31.7637 551.752 31.916C551.893 32.0684 552.068 32.1445 552.279 32.1445C552.756 32.1445 552.994 31.8809 552.994 31.3535V30.9082C552.994 30.6738 552.928 30.4863 552.795 30.3457C552.662 30.2012 552.486 30.1289 552.268 30.1289C552.049 30.1289 551.873 30.2012 551.74 30.3457C551.607 30.4863 551.541 30.6797 551.541 30.9258V31.3652ZM548.529 32.3613L547.703 31.916L551.869 25.248L552.695 25.6934L548.529 32.3613Z" fill="black"/>
<path d="M54.028 22.172V28.864C54.028 29.9 53.734 30.698 53.146 31.258C52.5673 31.818 51.7833 32.098 50.794 32.098C49.758 32.098 48.9273 31.804 48.302 31.216C47.6767 30.628 47.364 29.7927 47.364 28.71H49.744C49.744 29.1207 49.828 29.4333 49.996 29.648C50.164 29.8533 50.4067 29.956 50.724 29.956C51.0133 29.956 51.2373 29.8627 51.396 29.676C51.5547 29.4893 51.634 29.2187 51.634 28.864V22.172H54.028ZM62.0798 30.264H58.4118L57.8238 32H55.3178L58.8738 22.172H61.6458L65.2018 32H62.6678L62.0798 30.264ZM61.4638 28.416L60.2458 24.818L59.0418 28.416H61.4638ZM75.51 22.172L72.024 32H69.028L65.542 22.172H68.09L70.526 29.592L72.976 22.172H75.51ZM82.6286 30.264H78.9606L78.3726 32H75.8666L79.4226 22.172H82.1946L85.7506 32H83.2166L82.6286 30.264ZM82.0126 28.416L80.7946 24.818L79.5906 28.416H82.0126ZM90.3888 32.098C89.6702 32.098 89.0262 31.9813 88.4568 31.748C87.8875 31.5147 87.4302 31.1693 87.0848 30.712C86.7488 30.2547 86.5715 29.704 86.5528 29.06H89.1008C89.1382 29.424 89.2642 29.704 89.4788 29.9C89.6935 30.0867 89.9735 30.18 90.3188 30.18C90.6735 30.18 90.9535 30.1007 91.1588 29.942C91.3642 29.774 91.4668 29.5453 91.4668 29.256C91.4668 29.0133 91.3828 28.8127 91.2148 28.654C91.0562 28.4953 90.8555 28.3647 90.6128 28.262C90.3795 28.1593 90.0435 28.0427 89.6048 27.912C88.9702 27.716 88.4522 27.52 88.0508 27.324C87.6495 27.128 87.3042 26.8387 87.0148 26.456C86.7255 26.0733 86.5808 25.574 86.5808 24.958C86.5808 24.0433 86.9122 23.3293 87.5748 22.816C88.2375 22.2933 89.1008 22.032 90.1648 22.032C91.2475 22.032 92.1202 22.2933 92.7828 22.816C93.4455 23.3293 93.8002 24.048 93.8468 24.972H91.2568C91.2382 24.6547 91.1215 24.4073 90.9068 24.23C90.6922 24.0433 90.4168 23.95 90.0808 23.95C89.7915 23.95 89.5582 24.0293 89.3808 24.188C89.2035 24.3373 89.1148 24.5567 89.1148 24.846C89.1148 25.1633 89.2642 25.4107 89.5628 25.588C89.8615 25.7653 90.3282 25.9567 90.9628 26.162C91.5975 26.3767 92.1108 26.582 92.5028 26.778C92.9042 26.974 93.2495 27.2587 93.5388 27.632C93.8282 28.0053 93.9728 28.486 93.9728 29.074C93.9728 29.634 93.8282 30.1427 93.5388 30.6C93.2588 31.0573 92.8482 31.4213 92.3068 31.692C91.7655 31.9627 91.1262 32.098 90.3888 32.098ZM95.0401 27.072C95.0401 26.1013 95.2501 25.238 95.6701 24.482C96.0901 23.7167 96.6735 23.124 97.4201 22.704C98.1761 22.2747 99.0301 22.06 99.9821 22.06C101.149 22.06 102.147 22.368 102.978 22.984C103.809 23.6 104.364 24.44 104.644 25.504H102.012C101.816 25.0933 101.536 24.7807 101.172 24.566C100.817 24.3513 100.411 24.244 99.9541 24.244C99.2168 24.244 98.6195 24.5007 98.1621 25.014C97.7048 25.5273 97.4761 26.2133 97.4761 27.072C97.4761 27.9307 97.7048 28.6167 98.1621 29.13C98.6195 29.6433 99.2168 29.9 99.9541 29.9C100.411 29.9 100.817 29.7927 101.172 29.578C101.536 29.3633 101.816 29.0507 102.012 28.64H104.644C104.364 29.704 103.809 30.544 102.978 31.16C102.147 31.7667 101.149 32.07 99.9821 32.07C99.0301 32.07 98.1761 31.86 97.4201 31.44C96.6735 31.0107 96.0901 30.418 95.6701 29.662C95.2501 28.906 95.0401 28.0427 95.0401 27.072ZM111.122 32L109.078 28.29H108.504V32H106.11V22.172H110.128C110.903 22.172 111.561 22.3073 112.102 22.578C112.653 22.8487 113.064 23.222 113.334 23.698C113.605 24.1647 113.74 24.6873 113.74 25.266C113.74 25.9193 113.554 26.5027 113.18 27.016C112.816 27.5293 112.275 27.8933 111.556 28.108L113.824 32H111.122ZM108.504 26.596H109.988C110.427 26.596 110.754 26.4887 110.968 26.274C111.192 26.0593 111.304 25.756 111.304 25.364C111.304 24.9907 111.192 24.6967 110.968 24.482C110.754 24.2673 110.427 24.16 109.988 24.16H108.504V26.596ZM117.637 22.172V32H115.243V22.172H117.637ZM126.862 25.336C126.862 25.9053 126.731 26.428 126.47 26.904C126.209 27.3707 125.807 27.7487 125.266 28.038C124.725 28.3273 124.053 28.472 123.25 28.472H121.766V32H119.372V22.172H123.25C124.034 22.172 124.697 22.3073 125.238 22.578C125.779 22.8487 126.185 23.222 126.456 23.698C126.727 24.174 126.862 24.72 126.862 25.336ZM123.068 26.568C123.525 26.568 123.866 26.4607 124.09 26.246C124.314 26.0313 124.426 25.728 124.426 25.336C124.426 24.944 124.314 24.6407 124.09 24.426C123.866 24.2113 123.525 24.104 123.068 24.104H121.766V26.568H123.068ZM135.178 22.172V24.09H132.574V32H130.18V24.09H127.576V22.172H135.178Z" fill="black"/>
<path d="M20 39.21V16H41.23V39.21H20Z" fill="#4169E1"/>
<path d="M33.6845 32.7286C34.0926 33.4533 34.5361 34.1476 35.4755 34.1476C36.2645 34.1476 36.6785 33.7189 36.6785 33.1258C36.6785 32.4159 36.2504 32.1638 35.3823 31.7506L34.9064 31.5288C33.5329 30.8918 32.6195 30.0936 32.6195 28.4077C32.6195 26.8539 33.7075 25.6715 35.4077 25.6715C36.6184 25.6715 37.4882 26.1299 38.1157 27.3304L36.6331 28.3664C36.307 27.7294 35.9543 27.4786 35.4077 27.4786C34.8498 27.4786 34.4965 27.8635 34.4965 28.3664C34.4965 28.9879 34.8504 29.2394 35.6671 29.6243L36.1431 29.8461C37.7618 30.5997 38.6747 31.3695 38.6747 33.1C38.6747 34.9645 37.3278 35.9864 35.5197 35.9864C33.7511 35.9864 32.7468 35.0161 32.1878 33.815L33.6845 32.7286ZM26.852 32.7815C27.1504 33.3656 27.6039 33.815 28.2561 33.815C28.88 33.815 29.2392 33.5455 29.2392 32.4978V25.6708H31.2047V32.8279C31.2047 34.9987 30.053 35.9864 28.3711 35.9864C26.8514 35.9864 25.7545 34.8607 25.3075 33.815L26.852 32.7815Z" fill="white"/>
<defs>
<filter id="filter0_d" x="0" y="0" width="577" height="78" filterUnits="userSpaceOnUse" color-interpolation-filters="sRGB">
<feFlood flood-opacity="0" result="BackgroundImageFix"/>
<feColorMatrix in="SourceAlpha" type="matrix" values="0 0 0 0 0 0 0 0 0 0 0 0 0 0 0 0 0 0 127 0"/>
<feOffset dy="4"/>
<feGaussianBlur stdDeviation="5"/>
<feColorMatrix type="matrix" values="0 0 0 0 0 0 0 0 0 0 0 0 0 0 0 0 0 0 0.25 0"/>
<feBlend mode="normal" in2="BackgroundImageFix" result="effect1_dropShadow"/>
<feBlend mode="normal" in="SourceGraphic" in2="effect1_dropShadow" result="shape"/>
</filter>
</defs>
</svg>
